HIERARCHY
ROOT Hips
{
	OFFSET 0.000000 0.000000 0.000000
	CHANNELS 6 Xposition Yposition Zposition Xrotation Yrotation Zrotation
	JOINT LeftUpLeg_virtual
	{
		OFFSET 0.000000 0.000000 0.000000
		CHANNELS 3 Xrotation Yrotation Zrotation
		JOINT LeftUpLeg
		{
			OFFSET 11.394100 -6.187798 -0.413800
			CHANNELS 3 Xrotation Yrotation Zrotation
			JOINT LeftLeg
			{
				OFFSET 0.430247 -32.302673 3.732800
				CHANNELS 3 Xrotation Yrotation Zrotation
				JOINT LeftFoot
				{
					OFFSET -0.430247 -48.264931 -6.423300
					CHANNELS 3 Xrotation Yrotation Zrotation
					JOINT LeftToeBase
					{
						OFFSET 4.230900 -16.068199 23.438400
						CHANNELS 3 Xrotation Yrotation Zrotation
						JOINT LeftToe_End
						{
							OFFSET 4.510700 0.695400 19.974600
							CHANNELS 3 Xrotation Yrotation Zrotation
							End Site
							{
								OFFSET 0 0 0
							}
						}
					}
				}
			}
		}
	}
	JOINT RightUpLeg_virtual
	{
		OFFSET 0.000000 0.000000 0.000000
		CHANNELS 3 Xrotation Yrotation Zrotation
		JOINT RightUpLeg
		{
			OFFSET -11.333700 -6.187798 -0.413800
			CHANNELS 3 Xrotation Yrotation Zrotation
			JOINT RightLeg
			{
				OFFSET -0.430392 -32.302628 3.733000
				CHANNELS 3 Xrotation Yrotation Zrotation
				JOINT RightFoot
				{
					OFFSET 0.430392 -48.264973 -6.423500
					CHANNELS 3 Xrotation Yrotation Zrotation
					JOINT RightToeBase
					{
						OFFSET -4.230900 -16.068199 23.438400
						CHANNELS 3 Xrotation Yrotation Zrotation
						JOINT RightToe_End
						{
							OFFSET -4.510700 0.695400 19.974600
							CHANNELS 3 Xrotation Yrotation Zrotation
							End Site
							{
								OFFSET 0 0 0
							}
						}
					}
				}
			}
		}
	}
	JOINT Spine_virtual
	{
		OFFSET 0.000000 0.000000 0.000000
		CHANNELS 3 Xrotation Yrotation Zrotation
		JOINT Spine
		{
			OFFSET -0.002400 12.777504 0.315300
			CHANNELS 3 Xrotation Yrotation Zrotation
			JOINT Spine1
			{
				OFFSET -0.002067 5.816869 0.032633
				CHANNELS 3 Xrotation Yrotation Zrotation
				JOINT Spine1_split
				{
					OFFSET -0.002067 5.816869 0.032633
					CHANNELS 3 Xrotation Yrotation Zrotation
					JOINT Spine2
					{
						OFFSET -0.002067 5.816869 0.032633
						CHANNELS 3 Xrotation Yrotation Zrotation
						JOINT Neck_virtual
						{
							OFFSET 0.000000 0.000000 0.000000
							CHANNELS 3 Xrotation Yrotation Zrotation
							JOINT Neck
							{
								OFFSET -0.003700 21.199493 -0.826900
								CHANNELS 3 Xrotation Yrotation Zrotation
								JOINT Head
								{
									OFFSET 0.000000 20.442200 4.834800
									CHANNELS 3 Xrotation Yrotation Zrotation
									JOINT HeadTop_End
									{
										OFFSET 0.000000 34.668396 4.968400
										CHANNELS 3 Xrotation Yrotation Zrotation
										End Site
										{
											OFFSET 0 0 0
										}
									}
								}
							}
						}
						JOINT LeftShoulder_virtual
						{
							OFFSET 0.000000 0.000000 0.000000
							CHANNELS 3 Xrotation Yrotation Zrotation
							JOINT LeftShoulder
							{
								OFFSET 3.288150 8.794197 -1.372250
								CHANNELS 3 Xrotation Yrotation Zrotation
								JOINT LeftShoulder_split
								{
									OFFSET 3.288150 8.794197 -1.372250
									CHANNELS 3 Xrotation Yrotation Zrotation
									JOINT LeftArm
									{
										OFFSET 11.953299 -2.279007 -0.146200
										CHANNELS 3 Xrotation Yrotation Zrotation
										JOINT LeftForeArm
										{
											OFFSET 18.448900 0.000000 0.000000
											CHANNELS 3 Xrotation Yrotation Zrotation
											JOINT LeftHand
											{
												OFFSET 29.527798 0.000000 0.000000
												CHANNELS 3 Xrotation Yrotation Zrotation
												End Site
												{
													OFFSET 0 0 0
												}
											}
										}
									}
								}
							}
						}
						JOINT RightShoulder_virtual
						{
							OFFSET 0.000000 0.000000 0.000000
							CHANNELS 3 Xrotation Yrotation Zrotation
							JOINT RightShoulder
							{
								OFFSET -3.249400 8.794197 -1.372250
								CHANNELS 3 Xrotation Yrotation Zrotation
								JOINT RightShoulder_split
								{
									OFFSET -3.249400 8.794197 -1.372250
									CHANNELS 3 Xrotation Yrotation Zrotation
									JOINT RightArm
									{
										OFFSET -11.953299 -2.279007 -0.146200
										CHANNELS 3 Xrotation Yrotation Zrotation
										JOINT RightForeArm
										{
											OFFSET -18.448900 0.000000 0.000000
											CHANNELS 3 Xrotation Yrotation Zrotation
											JOINT RightHand
											{
												OFFSET -29.527802 0.000000 0.000000
												CHANNELS 3 Xrotation Yrotation Zrotation
												End Site
												{
													OFFSET 0 0 0
												}
											}
										}
									}
								}
							}
						}
					}
				}
			}
		}
	}
}
MOTION
Frames: 11
Frame Time: 0.03333333
52.808857 97.888039 151.733612 0.000000 0.000000 0.000000 -8.904501 38.752789 10.398134 -26.101792 3.806592 -11.707984 30.993008 9.480023 1.629391 21.543018 -5.136730 18.638770 -30.848276 2.958218 2.208769 0.000000 0.000000 0.000000 -7.480707 39.063262 9.546933 -27.589253 12.110900 -2.467768 44.888140 0.872289 1.950723 21.856247 -16.775916 4.318177 -39.198288 9.689140 1.570387 0.000000 0.000000 0.000000 -9.534065 40.827589 9.922399 7.076648 -5.924335 -1.977807 -1.902977 -1.445080 1.032241 0.025349 -0.000473 0.036902 0.000000 0.000000 0.000000 -0.284598 0.590323 2.166502 -9.830137 6.909787 5.435996 -8.769117 -9.515095 -24.407100 0.000000 0.000000 0.000000 -3.008649 -0.351779 1.289913 1.757448 0.374192 -5.961550 1.675668 -0.529707 -3.163392 11.059584 6.036278 -62.878503 19.885686 -37.279473 7.151503 0.000000 0.000000 0.000000 -1.441162 -0.763931 1.969028 1.119043 3.018306 -1.578785 -17.574382 -3.417401 1.152447 11.652183 1.944593 65.861001 -1.886897 18.962164 14.573950 0.000000 0.000000 0.000000 
54.388756 99.028717 154.257462 0.000000 0.000000 0.000000 -9.254879 42.335025 10.447472 -21.445817 1.635804 -12.741295 29.694780 9.625670 2.289018 18.361983 -3.984767 19.123978 -29.895332 3.091826 1.305453 0.000000 0.000000 0.000000 -7.555600 41.757881 9.320999 -33.368910 12.728159 -2.440021 41.527250 -0.168422 1.942190 23.202279 -16.952603 2.041553 -30.712881 9.723370 1.139287 0.000000 0.000000 0.000000 -10.140292 43.646336 10.285734 7.987639 -6.756341 -1.638639 -2.333896 -1.732136 1.249361 0.078696 -0.033003 0.000636 0.000000 0.000000 0.000000 -0.251363 0.288806 2.400658 -10.049655 6.700737 5.557280 -10.086066 -9.040904 -24.393421 0.000000 0.000000 0.000000 -3.173675 -0.698498 1.410586 1.802602 -0.630649 -5.921260 1.190462 0.885866 -3.064906 9.940775 2.881614 -61.551363 19.888713 -36.972593 7.639120 0.000000 0.000000 0.000000 -1.683496 -1.056815 2.261922 0.988176 2.216363 -0.425344 -18.132373 -3.471958 0.176699 12.400577 0.661785 66.509753 -1.140659 18.693780 13.895299 0.000000 0.000000 0.000000 
56.030945 100.180840 156.622421 0.000000 0.000000 0.000000 -9.317146 45.878773 10.540144 -16.937112 0.392765 -13.123460 27.402237 9.114764 2.764291 15.128724 -3.991966 19.910698 -28.530243 3.071755 0.731211 0.000000 0.000000 0.000000 -7.590238 44.920286 9.239708 -37.225866 12.043142 -2.918883 36.073504 -0.656128 1.459268 25.389852 -16.011992 1.358875 -23.126850 10.224011 -1.051865 0.000000 0.000000 0.000000 -10.912736 46.735703 10.903709 8.542006 -7.489230 -1.702508 -2.630689 -1.987344 1.482357 0.134394 -0.092886 -0.026752 0.000000 0.000000 0.000000 -0.243672 0.052146 2.609648 -10.038497 6.413648 5.856349 -10.899327 -8.834440 -24.303842 0.000000 0.000000 0.000000 -3.256289 -0.993513 1.545149 1.833831 -1.583114 -5.916670 0.723446 1.969273 -2.741067 8.483591 -0.171627 -60.219852 19.890578 -36.691107 7.998681 0.000000 0.000000 0.000000 -1.814163 -1.285958 2.543609 0.907639 1.370885 1.175046 -18.711705 -3.475471 -0.634297 13.026503 -0.768018 66.724678 -0.633661 18.698676 13.561759 0.000000 0.000000 0.000000 
57.746803 101.226852 158.826614 0.000000 0.000000 0.000000 -9.190943 49.271578 10.695885 -13.117393 -0.407900 -12.760289 24.871803 7.320481 2.991188 13.790470 -5.465497 19.865383 -29.520160 2.802025 0.815520 0.000000 0.000000 0.000000 -7.793610 48.735329 9.457026 -39.294918 10.189392 -3.848383 29.483027 -0.669144 0.746414 28.133829 -14.165094 2.146146 -16.962922 10.905468 -4.911777 0.000000 0.000000 0.000000 -11.554332 50.052856 11.579805 8.764425 -8.141342 -2.171631 -2.754301 -2.219357 1.753396 0.156506 -0.146822 -0.026143 0.000000 0.000000 0.000000 -0.227446 -0.113382 2.812441 -9.809355 6.099268 6.335686 -11.262144 -8.688613 -24.044142 0.000000 0.000000 0.000000 -3.276576 -1.226607 1.732943 1.822232 -2.421808 -5.826468 0.347780 2.607789 -2.355810 6.711008 -2.700485 -59.108853 20.037880 -37.037818 8.360613 0.000000 0.000000 0.000000 -1.872355 -1.470547 2.837570 0.915779 0.411682 3.025787 -19.206290 -3.404231 -1.164916 13.590114 -2.283806 66.317025 -0.452697 18.943181 13.625279 0.000000 0.000000 0.000000 
59.370987 102.062866 161.015305 0.000000 0.000000 0.000000 -8.841454 52.377183 10.679408 -9.923259 -1.081987 -11.883527 23.007241 4.877577 2.777541 14.675797 -7.599597 19.652935 -33.010779 2.424662 0.818708 0.000000 0.000000 0.000000 -8.163124 52.912847 9.813324 -40.075148 7.411822 -5.084401 23.123576 -0.420848 0.052822 31.208698 -11.670109 4.229773 -12.797917 11.600304 -9.892142 0.000000 0.000000 0.000000 -11.874219 53.312109 12.085921 8.696325 -8.723868 -2.865626 -2.726769 -2.425425 2.089087 0.138975 -0.160865 -0.014843 0.000000 0.000000 0.000000 -0.190505 -0.241686 3.025435 -9.462587 5.844781 6.934409 -11.340161 -8.462202 -23.592045 0.000000 0.000000 0.000000 -3.262331 -1.407692 1.988841 1.772111 -3.142044 -5.572785 0.251181 2.681955 -1.969009 4.810847 -4.468310 -58.306265 20.441047 -38.204110 8.850132 0.000000 0.000000 0.000000 -1.844425 -1.631927 3.163934 1.009481 -0.645591 4.977888 -19.534771 -3.158324 -1.529665 14.098589 -3.690272 65.288911 -0.587719 19.372612 14.029401 0.000000 0.000000 0.000000 
60.978313 102.548027 163.379425 0.000000 0.000000 0.000000 -8.361553 55.374529 10.494592 -7.362231 -1.604232 -10.553445 22.108979 2.455268 2.244511 16.746241 -9.701901 19.707995 -38.220939 2.310271 0.184361 0.000000 0.000000 0.000000 -8.481011 56.758175 10.113184 -40.274613 4.207100 -6.348435 17.930553 -0.236157 -0.533937 33.811725 -9.210353 6.945954 -10.210224 12.200855 -15.126828 0.000000 0.000000 0.000000 -11.814128 56.233098 12.325802 8.428459 -9.232253 -3.613766 -2.569236 -2.622685 2.482633 0.144456 -0.160548 -0.001368 0.000000 0.000000 0.000000 -0.110865 -0.353878 3.268694 -9.077645 5.706727 7.587450 -11.466421 -8.076957 -23.024988 0.000000 0.000000 0.000000 -3.259414 -1.565559 2.309176 1.709607 -3.739979 -5.143202 0.214991 2.307353 -1.769900 3.007623 -5.356711 -57.930898 20.965052 -39.712059 9.374396 0.000000 0.000000 0.000000 -1.775375 -1.804229 3.533951 1.237235 -1.712342 6.838580 -19.707150 -3.004259 -1.601835 14.545957 -4.823819 63.854441 -0.964243 19.950882 14.622074 0.000000 0.000000 0.000000 
62.584206 102.556091 166.003784 0.000000 0.000000 0.000000 -8.127235 58.354534 10.450825 -5.144905 -1.889930 -8.935836 21.968667 0.666399 1.735329 18.228240 -11.315163 19.878671 -44.049915 2.666503 -1.007594 0.000000 0.000000 0.000000 -8.708985 59.835353 10.261608 -40.401829 1.231152 -7.348718 14.536111 -0.463619 -1.032336 35.279238 -7.789558 9.150757 -7.711130 12.499136 -19.897004 0.000000 0.000000 0.000000 -11.755099 58.723255 12.538688 8.068483 -9.717580 -4.289530 -2.388823 -2.800924 2.891022 0.135411 -0.155984 -0.014506 0.000000 0.000000 0.000000 0.026369 -0.485686 3.556263 -8.674442 5.693723 8.156341 -11.665141 -7.661995 -22.446691 0.000000 0.000000 0.000000 -3.303031 -1.725441 2.660624 1.682239 -4.058043 -4.573148 0.148804 1.656515 -1.830360 1.506594 -5.491827 -58.031070 21.479999 -41.093539 9.890264 0.000000 0.000000 0.000000 -1.742606 -2.001994 3.938416 1.542368 -2.681473 8.409898 -19.627928 -2.856497 -1.385751 14.848725 -5.506279 62.315204 -1.479683 20.597255 15.198050 0.000000 0.000000 0.000000 
64.174706 102.098946 168.876389 0.000000 0.000000 0.000000 -8.180939 60.892735 10.537835 -2.376626 -1.926551 -7.420894 22.006709 0.114615 1.330376 17.262912 -12.006707 20.511437 -48.842720 3.515694 -2.581076 0.000000 0.000000 0.000000 -8.766356 61.880558 10.274291 -40.800237 -0.880782 -7.953906 13.499280 -1.186136 -1.427464 35.713256 -7.665990 10.477466 -5.032131 12.420188 -23.612278 0.000000 0.000000 0.000000 -11.778981 60.531773 12.739192 7.535940 -10.171503 -4.794401 -2.280519 -2.960319 3.252337 0.124767 -0.153658 -0.035297 0.000000 0.000000 0.000000 0.144774 -0.646133 3.862538 -8.331612 5.769295 8.510647 -11.915442 -7.478572 -21.952911 0.000000 0.000000 0.000000 -3.441530 -1.892652 3.004135 1.699788 -4.012949 -3.931899 0.057417 0.868449 -2.044251 0.607900 -5.146622 -58.570115 21.838686 -41.930624 10.266579 0.000000 0.000000 0.000000 -1.805813 -2.219597 4.326133 1.896163 -3.475127 9.590900 -19.412632 -2.794798 -1.139198 14.942412 -5.760243 61.107933 -1.989632 21.214462 15.568757 0.000000 0.000000 0.000000 
65.774590 101.294724 171.889313 0.000000 0.000000 0.000000 -8.880907 62.663844 11.113622 0.674680 -2.054549 -6.010728 22.348449 -0.106362 1.202254 14.520426 -12.266789 20.241611 -52.329597 4.398028 -3.479956 0.000000 0.000000 0.000000 -8.802122 62.905762 10.302954 -41.953850 -1.481487 -8.052024 14.907970 -2.066439 -1.696049 35.669854 -8.223625 11.298807 -3.283987 12.257938 -26.058007 0.000000 0.000000 0.000000 -11.731493 61.749138 12.752492 6.869457 -10.555008 -5.072136 -2.308777 -3.088461 3.495085 0.125220 -0.152917 -0.061858 0.000000 0.000000 0.000000 0.151903 -0.820284 4.163274 -8.055602 5.888834 8.566406 -12.108208 -7.769921 -21.571344 0.000000 0.000000 0.000000 -3.674960 -2.056071 3.275301 1.762222 -3.527054 -3.330759 -0.077022 0.190754 -2.267567 0.547702 -4.653404 -59.491685 21.906536 -42.065889 10.330193 0.000000 0.000000 0.000000 -2.004286 -2.437719 4.628502 2.257237 -4.023484 10.245153 -19.175937 -2.956068 -0.696931 14.933375 -5.724224 60.582118 -2.376545 21.652203 15.577727 0.000000 0.000000 0.000000 
67.273628 100.310402 174.873001 0.000000 0.000000 0.000000 -10.051965 63.397652 11.922048 3.520908 -2.504816 -4.790346 23.008358 -0.015852 1.320840 11.490905 -12.067676 19.408123 -54.202073 4.828787 -3.454492 0.000000 0.000000 0.000000 -9.222042 63.281170 10.556642 -43.740190 -0.464379 -7.569227 18.706035 -2.774839 -1.767486 35.953515 -8.596059 11.961476 -3.650077 12.456472 -27.250346 0.000000 0.000000 0.000000 -11.738111 62.476628 12.534991 6.056763 -10.808598 -5.048493 -2.545086 -3.162628 3.578625 0.096511 -0.127432 -0.086795 0.000000 0.000000 0.000000 -0.021430 -0.993230 4.400349 -7.817181 6.006940 8.307133 -12.028889 -8.667478 -21.224492 0.000000 0.000000 0.000000 -4.001303 -2.187442 3.421030 1.868105 -2.626549 -2.851765 -0.085516 -0.468332 -2.292908 1.409943 -4.440889 -60.598347 21.652924 -41.561076 9.945765 0.000000 0.000000 0.000000 -2.302674 -2.617268 4.780262 2.584313 -4.351207 10.362568 -18.847955 -3.208134 -0.346999 14.952119 -5.593491 60.907577 -2.572890 21.792086 15.217071 0.000000 0.000000 0.000000 
68.707283 99.286369 177.790619 0.000000 0.000000 0.000000 -11.329143 63.204890 12.398088 5.168593 -3.475019 -3.823813 24.239971 0.634109 1.556500 10.081618 -11.155928 18.664006 -53.906899 5.045485 -3.411173 0.000000 0.000000 0.000000 -9.872431 63.153186 10.703841 -45.619523 1.722893 -6.378906 23.767474 -3.242605 -1.637897 36.373363 -8.272801 12.486563 -6.028298 13.040982 -27.188458 0.000000 0.000000 0.000000 -11.790531 62.806021 11.885101 5.250020 -10.848561 -4.606370 -2.921317 -3.192700 3.518230 0.077714 -0.087054 -0.094204 0.000000 0.000000 0.000000 -0.413301 -1.117459 4.538726 -7.600548 6.091741 7.822125 -11.579484 -10.147693 -20.845857 0.000000 0.000000 0.000000 -4.388712 -2.258708 3.424738 2.007800 -1.511819 -2.504549 -0.093226 -0.897321 -2.202695 3.025646 -4.747990 -61.642136 20.950412 -40.375509 8.886613 0.000000 0.000000 0.000000 -2.626257 -2.721862 4.752979 2.920568 -4.413474 9.983455 -18.499779 -3.632572 -0.216480 15.101325 -5.579472 62.054837 -2.583102 21.552375 14.589986 0.000000 0.000000 0.000000 
